<svg width="256" height="256" viewBox="0 0 256 256" fill="none" xmlns="http://www.w3.org/2000/svg">
<g clip-path="url(#clip0_49_5)">
<path d="M167.288 0H88.7039C16.992 0 -0.00805664 17 -0.00805664 88.712V167.296C-0.00805664 239.008 16.992 256.008 88.7039 256.008H167.288C239 256.008 256 239.008 256 167.296V88.712C256 17 238.832 0 167.288 0ZM206.664 182.624H188.08C181.04 182.624 178.872 177.04 166.208 164.208C155.208 153.544 150.336 152.128 147.624 152.128C143.792 152.128 142.704 153.208 142.704 158.464V175.256C142.704 179.76 141.288 182.464 129.368 182.464C109.656 182.464 87.7839 170.544 72.4479 148.336C49.3199 115.792 42.9919 91.416 42.9919 86.376C42.9919 83.664 44.0719 81.128 49.2799 81.128H67.9039C72.6159 81.128 74.4079 83.296 76.2399 88.336C85.4479 114.92 100.784 138.208 107.112 138.208C109.448 138.208 110.528 137.128 110.528 131.168V103.712C109.816 91.048 103.152 89.96 103.152 85.464C103.152 83.296 104.944 81.128 107.816 81.128H137.104C141.064 81.128 142.52 83.296 142.52 87.96V125C142.52 129 144.312 130.416 145.392 130.416C147.728 130.416 149.728 129 154.056 124.664C167.432 109.664 177.016 86.536 177.016 86.536C178.264 83.824 180.432 81.288 185.144 81.288H203.768C209.352 81.288 210.6 84.16 209.352 88.16C207.016 98.992 184.224 131.16 184.224 131.16C182.264 134.408 181.512 135.824 184.224 139.448C186.224 142.16 192.728 147.784 197.056 152.824C205.016 161.864 211.136 169.448 212.768 174.696C214.6 179.904 211.896 182.616 206.64 182.616L206.664 182.624Z" fill="#0077FF"/>
</g>
<defs>
<clipPath id="clip0_49_5">
<rect width="256" height="256" fill="white"/>
</clipPath>
</defs>
</svg>
