<svg width="1420" height="790" viewBox="0 0 1420 790" fill="none" xmlns="http://www.w3.org/2000/svg">
<rect width="1420" height="790" rx="26" fill="#FBF3F3"/>
<rect x="10" y="582" width="700" height="120" rx="60" fill="white"/>
<rect y="582" width="81.8935" height="120" fill="white"/>
<circle cx="634" cy="642" r="31.5" stroke="#56A9ED" stroke-width="7"/>
<path d="M634.52 657.2C633.187 657.2 631.88 657.053 630.6 656.76C629.347 656.467 628.093 656 626.84 655.36C625.613 654.693 624.56 653.747 623.68 652.52C622.827 651.267 622.267 649.8 622 648.12L628.6 647.52C628.867 648.96 629.547 650.04 630.64 650.76C631.733 651.48 632.973 651.84 634.36 651.84C635.933 651.84 637.16 651.507 638.04 650.84C638.92 650.173 639.36 649.373 639.36 648.44C639.36 646.413 637.653 645.4 634.24 645.4H632.92V639.96H634.24C635.84 639.96 636.947 639.733 637.56 639.28C638.173 638.827 638.48 638.187 638.48 637.36C638.48 636.56 638.12 635.867 637.4 635.28C636.68 634.693 635.747 634.4 634.6 634.4C633.293 634.4 632.213 634.747 631.36 635.44C630.533 636.133 630.013 637.107 629.8 638.36L623.4 637.84C623.827 635.04 625.027 632.867 627 631.32C628.973 629.773 631.52 629 634.64 629C637.733 629 640.213 629.787 642.08 631.36C643.947 632.907 644.88 634.787 644.88 637C644.88 638.413 644.493 639.6 643.72 640.56C642.973 641.493 642 642.147 640.8 642.52C642.24 642.893 643.413 643.613 644.32 644.68C645.227 645.747 645.68 647.107 645.68 648.76C645.68 651.107 644.667 653.107 642.64 654.76C640.613 656.387 637.907 657.2 634.52 657.2Z" fill="black"/>
<path d="M75.965 650.085C73.595 652.995 70.175 654.45 65.705 654.45C61.235 654.45 57.785 652.995 55.355 650.085C52.925 647.175 51.71 643.29 51.71 638.43C51.71 633.66 52.925 629.775 55.355 626.775C57.815 623.775 61.265 622.275 65.705 622.275C70.145 622.275 73.565 623.775 75.965 626.775C78.365 629.745 79.565 633.63 79.565 638.43C79.565 643.29 78.365 647.175 75.965 650.085ZM65.705 651.66C69.185 651.66 71.825 650.445 73.625 648.015C75.425 645.585 76.325 642.375 76.325 638.385C76.325 634.485 75.425 631.29 73.625 628.8C71.825 626.31 69.185 625.065 65.705 625.065C62.225 625.065 59.555 626.31 57.695 628.8C55.865 631.29 54.95 634.485 54.95 638.385C54.95 642.375 55.865 645.585 57.695 648.015C59.525 650.445 62.195 651.66 65.705 651.66ZM93.4348 654.27C89.5348 654.27 86.6998 652.71 84.9298 649.59C83.6698 647.37 83.0398 644.295 83.0398 640.365C83.0398 634.965 84.3598 630.735 86.9998 627.675C87.8098 626.745 88.7998 625.935 89.9698 625.245C91.1698 624.525 92.1598 624.03 92.9398 623.76C93.7498 623.46 94.8148 623.13 96.1348 622.77C97.4848 622.38 98.4598 621.99 99.0598 621.6C99.6598 621.18 99.9598 620.58 99.9598 619.8H103.29C103.26 621.06 102.87 622.065 102.12 622.815C101.37 623.535 100.23 624.165 98.6998 624.705C98.3698 624.825 97.7848 625.005 96.9448 625.245C96.1348 625.485 95.4298 625.71 94.8298 625.92C94.2598 626.13 93.5548 626.43 92.7148 626.82C91.8748 627.21 91.1398 627.675 90.5098 628.215C89.9098 628.755 89.2948 629.415 88.6648 630.195C88.0648 630.945 87.5548 631.875 87.1348 632.985C86.7448 634.065 86.4598 635.295 86.2798 636.675C87.8998 633.435 90.6298 631.815 94.4698 631.815C97.1098 631.815 99.2548 632.85 100.905 634.92C102.555 636.99 103.38 639.705 103.38 643.065C103.38 646.365 102.465 649.065 100.635 651.165C98.8048 653.235 96.4048 654.27 93.4348 654.27ZM93.4348 651.57C95.4748 651.57 97.1248 650.79 98.3848 649.23C99.6748 647.67 100.32 645.615 100.32 643.065C100.32 640.515 99.6748 638.46 98.3848 636.9C97.1248 635.31 95.4748 634.515 93.4348 634.515C91.3348 634.515 89.6248 635.31 88.3048 636.9C86.9848 638.46 86.3248 640.515 86.3248 643.065C86.3248 645.585 86.9248 647.64 88.1248 649.23C89.3548 650.79 91.1248 651.57 93.4348 651.57ZM137.243 651.3H141.653V660.75H138.863V654H107.633V631.5H110.693V651.3H120.953V631.5H123.968V651.3H134.183V631.5H137.243V651.3ZM151.521 654.45C149.181 654.45 147.321 653.895 145.941 652.785C144.591 651.675 143.916 650.22 143.916 648.42C143.916 646.62 144.426 645.18 145.446 644.1C146.466 642.99 147.756 642.285 149.316 641.985C150.876 641.685 152.601 641.505 154.491 641.445C156.381 641.355 158.196 641.4 159.936 641.58V639.15C159.936 637.5 159.456 636.195 158.496 635.235C157.536 634.245 156.171 633.75 154.401 633.75C152.571 633.75 151.071 634.245 149.901 635.235C148.731 636.225 148.041 637.65 147.831 639.51L144.816 639.33C145.086 636.69 146.106 634.65 147.876 633.21C149.676 631.77 151.851 631.05 154.401 631.05C157.071 631.05 159.171 631.785 160.701 633.255C162.231 634.725 162.996 636.78 162.996 639.42V654H160.656L160.071 650.22C158.361 653.04 155.511 654.45 151.521 654.45ZM152.106 651.885C154.506 651.885 156.411 651.21 157.821 649.86C159.231 648.51 159.936 646.785 159.936 644.685V643.695C158.466 643.605 156.966 643.59 155.436 643.65C153.936 643.71 152.556 643.845 151.296 644.055C150.066 644.235 149.046 644.685 148.236 645.405C147.456 646.095 147.066 647.01 147.066 648.15C147.066 649.29 147.486 650.205 148.326 650.895C149.196 651.555 150.456 651.885 152.106 651.885ZM177.905 627.765C176.015 627.765 174.56 627.18 173.54 626.01C172.52 624.81 171.98 623.13 171.92 620.97H174.035C174.155 622.68 174.53 623.91 175.16 624.66C175.79 625.41 176.705 625.785 177.905 625.785C180.335 625.785 181.61 624.18 181.73 620.97H183.845C183.785 623.13 183.245 624.81 182.225 626.01C181.205 627.18 179.765 627.765 177.905 627.765ZM168.365 654V631.5H171.38V650.22L183.71 631.5H187.4V654H184.385V635.235L172.055 654H168.365ZM201.801 654.45C198.711 654.45 196.221 653.385 194.331 651.255C192.471 649.125 191.541 646.305 191.541 642.795C191.541 639.255 192.456 636.42 194.286 634.29C196.146 632.13 198.621 631.05 201.711 631.05C204.291 631.05 206.406 631.8 208.056 633.3C209.736 634.77 210.801 636.87 211.251 639.6L208.281 639.87C207.891 637.86 207.126 636.345 205.986 635.325C204.876 634.275 203.451 633.75 201.711 633.75C199.491 633.75 197.736 634.56 196.446 636.18C195.186 637.8 194.556 640.005 194.556 642.795C194.556 645.525 195.201 647.7 196.491 649.32C197.811 650.94 199.581 651.75 201.801 651.75C203.481 651.75 204.906 651.225 206.076 650.175C207.246 649.125 208.041 647.595 208.461 645.585L211.431 645.81C210.951 648.54 209.856 650.67 208.146 652.2C206.466 653.7 204.351 654.45 201.801 654.45ZM213.944 654L219.884 644.73C216.164 643.95 214.304 641.82 214.304 638.34C214.304 636.15 215.009 634.47 216.419 633.3C217.829 632.1 219.899 631.5 222.629 631.5H232.124V654H229.064V645.09H222.899L217.499 654H213.944ZM222.854 642.525H229.064V634.065H222.854C219.134 634.065 217.274 635.49 217.274 638.34C217.274 641.13 219.134 642.525 222.854 642.525ZM259.501 654.45C256.411 654.45 253.921 653.385 252.031 651.255C250.171 649.125 249.241 646.305 249.241 642.795C249.241 639.255 250.156 636.42 251.986 634.29C253.846 632.13 256.321 631.05 259.411 631.05C261.991 631.05 264.106 631.8 265.756 633.3C267.436 634.77 268.501 636.87 268.951 639.6L265.981 639.87C265.591 637.86 264.826 636.345 263.686 635.325C262.576 634.275 261.151 633.75 259.411 633.75C257.191 633.75 255.436 634.56 254.146 636.18C252.886 637.8 252.256 640.005 252.256 642.795C252.256 645.525 252.901 647.7 254.191 649.32C255.511 650.94 257.281 651.75 259.501 651.75C261.181 651.75 262.606 651.225 263.776 650.175C264.946 649.125 265.741 647.595 266.161 645.585L269.131 645.81C268.651 648.54 267.556 650.67 265.846 652.2C264.166 653.7 262.051 654.45 259.501 654.45ZM284.166 660.66V651.3H287.991C289.071 649.02 289.701 646.185 289.881 642.795L290.601 631.5H305.676V651.3H309.771V660.66H306.936V654H286.956V660.66H284.166ZM291.186 651.3H302.661V634.155H293.481L292.896 642.84C292.656 646.35 292.086 649.17 291.186 651.3ZM313.165 654V631.5H316.18V650.22L328.51 631.5H332.2V654H329.185V635.235L316.855 654H313.165ZM345.567 654.45C342.957 654.45 340.767 653.835 338.997 652.605C337.227 651.375 336.192 649.65 335.892 647.43L338.952 647.16C339.192 648.63 339.882 649.77 341.022 650.58C342.162 651.39 343.677 651.795 345.567 651.795C347.457 651.795 348.927 651.42 349.977 650.67C351.027 649.89 351.552 648.825 351.552 647.475C351.552 646.125 351.057 645.09 350.067 644.37C349.107 643.65 347.712 643.29 345.882 643.29H344.802V641.175H345.882C349.182 641.175 350.832 639.96 350.832 637.53C350.832 636.33 350.397 635.4 349.527 634.74C348.657 634.05 347.412 633.705 345.792 633.705C342.372 633.705 340.392 635.205 339.852 638.205L336.927 637.89C337.257 635.79 338.202 634.125 339.762 632.895C341.352 631.665 343.362 631.05 345.792 631.05C348.222 631.05 350.157 631.635 351.597 632.805C353.037 633.975 353.757 635.505 353.757 637.395C353.757 639.915 352.452 641.49 349.842 642.12C351.372 642.39 352.542 643.02 353.352 644.01C354.162 645 354.567 646.2 354.567 647.61C354.567 649.68 353.757 651.345 352.137 652.605C350.547 653.835 348.357 654.45 345.567 654.45ZM365.622 654.45C363.282 654.45 361.422 653.895 360.042 652.785C358.692 651.675 358.017 650.22 358.017 648.42C358.017 646.62 358.527 645.18 359.547 644.1C360.567 642.99 361.857 642.285 363.417 641.985C364.977 641.685 366.702 641.505 368.592 641.445C370.482 641.355 372.297 641.4 374.037 641.58V639.15C374.037 637.5 373.557 636.195 372.597 635.235C371.637 634.245 370.272 633.75 368.502 633.75C366.672 633.75 365.172 634.245 364.002 635.235C362.832 636.225 362.142 637.65 361.932 639.51L358.917 639.33C359.187 636.69 360.207 634.65 361.977 633.21C363.777 631.77 365.952 631.05 368.502 631.05C371.172 631.05 373.272 631.785 374.802 633.255C376.332 634.725 377.097 636.78 377.097 639.42V654H374.757L374.172 650.22C372.462 653.04 369.612 654.45 365.622 654.45ZM366.207 651.885C368.607 651.885 370.512 651.21 371.922 649.86C373.332 648.51 374.037 646.785 374.037 644.685V643.695C372.567 643.605 371.067 643.59 369.537 643.65C368.037 643.71 366.657 643.845 365.397 644.055C364.167 644.235 363.147 644.685 362.337 645.405C361.557 646.095 361.167 647.01 361.167 648.15C361.167 649.29 361.587 650.205 362.427 650.895C363.297 651.555 364.557 651.885 366.207 651.885ZM392.007 627.765C390.117 627.765 388.662 627.18 387.642 626.01C386.622 624.81 386.082 623.13 386.022 620.97H388.137C388.257 622.68 388.632 623.91 389.262 624.66C389.892 625.41 390.807 625.785 392.007 625.785C394.437 625.785 395.712 624.18 395.832 620.97H397.947C397.887 623.13 397.347 624.81 396.327 626.01C395.307 627.18 393.867 627.765 392.007 627.765ZM382.467 654V631.5H385.482V650.22L397.812 631.5H401.502V654H398.487V635.235L386.157 654H382.467ZM406.944 654V631.5H410.004V641.04H422.739V631.5H425.799V654H422.739V643.695H410.004V654H406.944ZM440.339 654.45C437.249 654.45 434.744 653.415 432.824 651.345C430.904 649.245 429.944 646.395 429.944 642.795C429.944 639.315 430.874 636.495 432.734 634.335C434.594 632.145 437.054 631.05 440.114 631.05C443.174 631.05 445.589 632.115 447.359 634.245C449.159 636.375 450.059 639.225 450.059 642.795C450.059 643.155 450.044 643.41 450.014 643.56H432.959C433.049 646.14 433.739 648.165 435.029 649.635C436.349 651.075 438.119 651.795 440.339 651.795C442.079 651.795 443.519 651.36 444.659 650.49C445.829 649.59 446.624 648.33 447.044 646.71L449.879 647.025C449.279 649.395 448.139 651.225 446.459 652.515C444.809 653.805 442.769 654.45 440.339 654.45ZM433.049 641.13H447.044C446.864 638.73 446.144 636.9 444.884 635.64C443.624 634.35 442.034 633.705 440.114 633.705C438.164 633.705 436.529 634.35 435.209 635.64C433.919 636.93 433.199 638.76 433.049 641.13ZM454.185 664.8V631.5H457.245V636.72C457.995 634.92 459.075 633.555 460.485 632.625C461.895 631.695 463.47 631.23 465.21 631.23C467.79 631.23 469.95 632.19 471.69 634.11C473.46 636.03 474.345 638.925 474.345 642.795C474.345 646.695 473.46 649.59 471.69 651.48C469.95 653.34 467.79 654.27 465.21 654.27C463.47 654.27 461.895 653.82 460.485 652.92C459.075 652.02 457.995 650.67 457.245 648.87V664.8H454.185ZM464.265 651.525C466.275 651.525 467.925 650.805 469.215 649.365C470.505 647.925 471.15 645.735 471.15 642.795C471.15 639.855 470.505 637.65 469.215 636.18C467.925 634.71 466.275 633.975 464.265 633.975C462.345 633.975 460.695 634.77 459.315 636.36C457.965 637.92 457.29 640.065 457.29 642.795C457.29 645.495 457.965 647.625 459.315 649.185C460.695 650.745 462.345 651.525 464.265 651.525ZM485.154 654.45C482.814 654.45 480.954 653.895 479.574 652.785C478.224 651.675 477.549 650.22 477.549 648.42C477.549 646.62 478.059 645.18 479.079 644.1C480.099 642.99 481.389 642.285 482.949 641.985C484.509 641.685 486.234 641.505 488.124 641.445C490.014 641.355 491.829 641.4 493.569 641.58V639.15C493.569 637.5 493.089 636.195 492.129 635.235C491.169 634.245 489.804 633.75 488.034 633.75C486.204 633.75 484.704 634.245 483.534 635.235C482.364 636.225 481.674 637.65 481.464 639.51L478.449 639.33C478.719 636.69 479.739 634.65 481.509 633.21C483.309 631.77 485.484 631.05 488.034 631.05C490.704 631.05 492.804 631.785 494.334 633.255C495.864 634.725 496.629 636.78 496.629 639.42V654H494.289L493.704 650.22C491.994 653.04 489.144 654.45 485.154 654.45ZM485.739 651.885C488.139 651.885 490.044 651.21 491.454 649.86C492.864 648.51 493.569 646.785 493.569 644.685V643.695C492.099 643.605 490.599 643.59 489.069 643.65C487.569 643.71 486.189 643.845 484.929 644.055C483.699 644.235 482.679 644.685 481.869 645.405C481.089 646.095 480.699 647.01 480.699 648.15C480.699 649.29 481.119 650.205 481.959 650.895C482.829 651.555 484.089 651.885 485.739 651.885ZM501.998 654V631.5H506.093L515.453 650.85L524.723 631.5H528.818V654H525.803V635.775L517.028 654H513.878L505.058 635.73V654H501.998ZM534.254 654V631.5H537.269V650.22L549.599 631.5H553.289V654H550.274V635.235L537.944 654H534.254Z" fill="black"/>
<rect width="687" height="120" rx="60" transform="matrix(-1 0 0 1 1410 420)" fill="white"/>
<rect width="81.8935" height="120" transform="matrix(-1 0 0 1 1420 420)" fill="white"/>
<circle cx="35" cy="35" r="31.5" transform="matrix(-1 0 0 1 835 445)" stroke="#56A9ED" stroke-width="7"/>
<path d="M788.32 492V486.64L798.92 480.36C801 479.133 802.467 478.04 803.32 477.08C804.2 476.12 804.64 475.053 804.64 473.88C804.64 472.573 804.24 471.533 803.44 470.76C802.667 469.987 801.64 469.6 800.36 469.6C799.053 469.6 797.92 470.027 796.96 470.88C796 471.733 795.453 472.92 795.32 474.44L789.04 473.92C789.253 471.04 790.413 468.667 792.52 466.8C794.627 464.933 797.24 464 800.36 464C803.693 464 806.307 464.893 808.2 466.68C810.12 468.467 811.08 470.867 811.08 473.88C811.08 475.987 810.427 477.813 809.12 479.36C807.813 480.907 805.96 482.387 803.56 483.8L798.76 486.64H810.96V492H788.32Z" fill="black"/>
<path d="M878.838 493V461.725H882.033V475.45H899.943V461.725H903.138V493H899.943V478.285H882.033V493H878.838ZM915.475 493.45C913.135 493.45 911.275 492.895 909.895 491.785C908.545 490.675 907.87 489.22 907.87 487.42C907.87 485.62 908.38 484.18 909.4 483.1C910.42 481.99 911.71 481.285 913.27 480.985C914.83 480.685 916.555 480.505 918.445 480.445C920.335 480.355 922.15 480.4 923.89 480.58V478.15C923.89 476.5 923.41 475.195 922.45 474.235C921.49 473.245 920.125 472.75 918.355 472.75C916.525 472.75 915.025 473.245 913.855 474.235C912.685 475.225 911.995 476.65 911.785 478.51L908.77 478.33C909.04 475.69 910.06 473.65 911.83 472.21C913.63 470.77 915.805 470.05 918.355 470.05C921.025 470.05 923.125 470.785 924.655 472.255C926.185 473.725 926.95 475.78 926.95 478.42V493H924.61L924.025 489.22C922.315 492.04 919.465 493.45 915.475 493.45ZM916.06 490.885C918.46 490.885 920.365 490.21 921.775 488.86C923.185 487.51 923.89 485.785 923.89 483.685V482.695C922.42 482.605 920.92 482.59 919.39 482.65C917.89 482.71 916.51 482.845 915.25 483.055C914.02 483.235 913 483.685 912.19 484.405C911.41 485.095 911.02 486.01 911.02 487.15C911.02 488.29 911.44 489.205 912.28 489.895C913.15 490.555 914.41 490.885 916.06 490.885ZM930.473 493V492.865L938.933 481.75L930.473 470.635V470.5H934.343L940.868 479.815L947.303 470.5H951.173V470.635L942.713 481.75L951.173 492.865V493H947.303L940.868 483.685L934.343 493H930.473ZM970.052 490.345C968.252 492.415 965.837 493.45 962.807 493.45C959.777 493.45 957.332 492.415 955.472 490.345C953.642 488.275 952.727 485.425 952.727 481.795C952.727 478.135 953.642 475.27 955.472 473.2C957.332 471.1 959.777 470.05 962.807 470.05C965.837 470.05 968.252 471.1 970.052 473.2C971.882 475.27 972.797 478.135 972.797 481.795C972.797 485.425 971.882 488.275 970.052 490.345ZM962.807 490.795C964.907 490.795 966.587 490.015 967.847 488.455C969.107 486.865 969.737 484.645 969.737 481.795C969.737 478.915 969.107 476.68 967.847 475.09C966.587 473.5 964.907 472.705 962.807 472.705C960.677 472.705 958.967 473.5 957.677 475.09C956.417 476.68 955.787 478.915 955.787 481.795C955.787 484.645 956.417 486.865 957.677 488.455C958.967 490.015 960.677 490.795 962.807 490.795ZM973.809 499.66V490.3H977.634C978.714 488.02 979.344 485.185 979.524 481.795L980.244 470.5H995.319V490.3H999.414V499.66H996.579V493H976.599V499.66H973.809ZM980.829 490.3H992.304V473.155H983.124L982.539 481.84C982.299 485.35 981.729 488.17 980.829 490.3ZM1002.81 493V470.5H1005.82V489.22L1018.15 470.5H1021.84V493H1018.83V474.235L1006.5 493H1002.81ZM1040.12 493V470.5H1043.18V480.04H1055.91V470.5H1058.97V493H1055.91V482.695H1043.18V493H1040.12ZM1080.44 490.345C1078.64 492.415 1076.23 493.45 1073.2 493.45C1070.17 493.45 1067.72 492.415 1065.86 490.345C1064.03 488.275 1063.12 485.425 1063.12 481.795C1063.12 478.135 1064.03 475.27 1065.86 473.2C1067.72 471.1 1070.17 470.05 1073.2 470.05C1076.23 470.05 1078.64 471.1 1080.44 473.2C1082.27 475.27 1083.19 478.135 1083.19 481.795C1083.19 485.425 1082.27 488.275 1080.44 490.345ZM1073.2 490.795C1075.3 490.795 1076.98 490.015 1078.24 488.455C1079.5 486.865 1080.13 484.645 1080.13 481.795C1080.13 478.915 1079.5 476.68 1078.24 475.09C1076.98 473.5 1075.3 472.705 1073.2 472.705C1071.07 472.705 1069.36 473.5 1068.07 475.09C1066.81 476.68 1066.18 478.915 1066.18 481.795C1066.18 484.645 1066.81 486.865 1068.07 488.455C1069.36 490.015 1071.07 490.795 1073.2 490.795ZM1087.4 493V470.5H1097.57C1102.82 470.5 1105.45 472.54 1105.45 476.62C1105.45 477.94 1105.12 479.05 1104.46 479.95C1103.8 480.85 1102.9 481.45 1101.76 481.75C1104.4 482.41 1105.72 484.12 1105.72 486.88C1105.72 490.96 1103.06 493 1097.75 493H1087.4ZM1090.46 480.58H1097.03C1099.07 480.58 1100.5 480.28 1101.31 479.68C1102.12 479.08 1102.52 478.09 1102.52 476.71C1102.52 475.36 1102.1 474.385 1101.26 473.785C1100.45 473.185 1099.04 472.885 1097.03 472.885H1090.46V480.58ZM1090.46 490.615H1097.17C1099.21 490.615 1100.65 490.315 1101.49 489.715C1102.33 489.085 1102.75 488.095 1102.75 486.745C1102.75 485.395 1102.33 484.42 1101.49 483.82C1100.65 483.22 1099.21 482.92 1097.17 482.92H1090.46V490.615ZM1110.03 493V470.5H1113.09V479.77H1119.62C1122.11 479.77 1124.03 480.355 1125.38 481.525C1126.76 482.665 1127.45 484.285 1127.45 486.385C1127.45 488.485 1126.76 490.12 1125.38 491.29C1124.03 492.43 1122.11 493 1119.62 493H1110.03ZM1131.18 493V470.5H1134.24V493H1131.18ZM1113.09 490.57H1119.03C1122.69 490.57 1124.52 489.175 1124.52 486.385C1124.52 483.595 1122.69 482.2 1119.03 482.2H1113.09V490.57ZM1137.72 493V492.865L1146.18 481.75L1137.72 470.635V470.5H1141.59L1148.11 479.815L1154.55 470.5H1158.42V470.635L1149.96 481.75L1158.42 492.865V493H1154.55L1148.11 483.685L1141.59 493H1137.72ZM1182.87 493.45C1180.26 493.45 1178.07 492.835 1176.3 491.605C1174.53 490.375 1173.49 488.65 1173.19 486.43L1176.25 486.16C1176.49 487.63 1177.18 488.77 1178.32 489.58C1179.46 490.39 1180.98 490.795 1182.87 490.795C1184.76 490.795 1186.23 490.42 1187.28 489.67C1188.33 488.89 1188.85 487.825 1188.85 486.475C1188.85 485.125 1188.36 484.09 1187.37 483.37C1186.41 482.65 1185.01 482.29 1183.18 482.29H1182.1V480.175H1183.18C1186.48 480.175 1188.13 478.96 1188.13 476.53C1188.13 475.33 1187.7 474.4 1186.83 473.74C1185.96 473.05 1184.71 472.705 1183.09 472.705C1179.67 472.705 1177.69 474.205 1177.15 477.205L1174.23 476.89C1174.56 474.79 1175.5 473.125 1177.06 471.895C1178.65 470.665 1180.66 470.05 1183.09 470.05C1185.52 470.05 1187.46 470.635 1188.9 471.805C1190.34 472.975 1191.06 474.505 1191.06 476.395C1191.06 478.915 1189.75 480.49 1187.14 481.12C1188.67 481.39 1189.84 482.02 1190.65 483.01C1191.46 484 1191.87 485.2 1191.87 486.61C1191.87 488.68 1191.06 490.345 1189.44 491.605C1187.85 492.835 1185.66 493.45 1182.87 493.45ZM1196.12 493V470.5H1199.18V480.04H1211.92V470.5H1214.98V493H1211.92V482.695H1199.18V493H1196.12ZM1226.74 493.45C1224.4 493.45 1222.54 492.895 1221.16 491.785C1219.81 490.675 1219.13 489.22 1219.13 487.42C1219.13 485.62 1219.64 484.18 1220.66 483.1C1221.68 481.99 1222.97 481.285 1224.53 480.985C1226.09 480.685 1227.82 480.505 1229.71 480.445C1231.6 480.355 1233.41 480.4 1235.15 480.58V478.15C1235.15 476.5 1234.67 475.195 1233.71 474.235C1232.75 473.245 1231.39 472.75 1229.62 472.75C1227.79 472.75 1226.29 473.245 1225.12 474.235C1223.95 475.225 1223.26 476.65 1223.05 478.51L1220.03 478.33C1220.3 475.69 1221.32 473.65 1223.09 472.21C1224.89 470.77 1227.07 470.05 1229.62 470.05C1232.29 470.05 1234.39 470.785 1235.92 472.255C1237.45 473.725 1238.21 475.78 1238.21 478.42V493H1235.87L1235.29 489.22C1233.58 492.04 1230.73 493.45 1226.74 493.45ZM1227.32 490.885C1229.72 490.885 1231.63 490.21 1233.04 488.86C1234.45 487.51 1235.15 485.785 1235.15 483.685V482.695C1233.68 482.605 1232.18 482.59 1230.65 482.65C1229.15 482.71 1227.77 482.845 1226.51 483.055C1225.28 483.235 1224.26 483.685 1223.45 484.405C1222.67 485.095 1222.28 486.01 1222.28 487.15C1222.28 488.29 1222.7 489.205 1223.54 489.895C1224.41 490.555 1225.67 490.885 1227.32 490.885ZM1262.84 493H1259.02L1250.65 481.795L1246.64 485.53V493H1243.58V470.5H1246.64V482.2L1258.84 470.5H1262.8L1252.72 479.905L1262.84 493ZM1281.49 490.345C1279.69 492.415 1277.28 493.45 1274.25 493.45C1271.22 493.45 1268.77 492.415 1266.91 490.345C1265.08 488.275 1264.17 485.425 1264.17 481.795C1264.17 478.135 1265.08 475.27 1266.91 473.2C1268.77 471.1 1271.22 470.05 1274.25 470.05C1277.28 470.05 1279.69 471.1 1281.49 473.2C1283.32 475.27 1284.24 478.135 1284.24 481.795C1284.24 485.425 1283.32 488.275 1281.49 490.345ZM1274.25 490.795C1276.35 490.795 1278.03 490.015 1279.29 488.455C1280.55 486.865 1281.18 484.645 1281.18 481.795C1281.18 478.915 1280.55 476.68 1279.29 475.09C1278.03 473.5 1276.35 472.705 1274.25 472.705C1272.12 472.705 1270.41 473.5 1269.12 475.09C1267.86 476.68 1267.23 478.915 1267.23 481.795C1267.23 484.645 1267.86 486.865 1269.12 488.455C1270.41 490.015 1272.12 490.795 1274.25 490.795ZM1288.45 493V470.5H1292.55L1301.91 489.85L1311.18 470.5H1315.27V493H1312.26V474.775L1303.48 493H1300.33L1291.51 474.73V493H1288.45ZM1320.71 493V470.5H1323.77V479.77H1330.29C1332.78 479.77 1334.7 480.355 1336.05 481.525C1337.43 482.665 1338.12 484.285 1338.12 486.385C1338.12 488.485 1337.43 490.12 1336.05 491.29C1334.7 492.43 1332.78 493 1330.29 493H1320.71ZM1341.86 493V470.5H1344.92V493H1341.86ZM1323.77 490.57H1329.71C1333.37 490.57 1335.2 489.175 1335.2 486.385C1335.2 483.595 1333.37 482.2 1329.71 482.2H1323.77V490.57ZM1348.39 493V492.865L1356.85 481.75L1348.39 470.635V470.5H1352.26L1358.79 479.815L1365.22 470.5H1369.09V470.635L1360.63 481.75L1369.09 492.865V493H1365.22L1358.79 483.685L1352.26 493H1348.39Z" fill="black"/>
<rect x="10.0277" y="259" width="711.972" height="120" rx="60" fill="white"/>
<rect y="259" width="81.8935" height="120" fill="white"/>
<circle cx="645" cy="319" r="31.5" stroke="#56A9ED" stroke-width="7"/>
<path d="M636.2 331V325.64H643.8V313.28C643.293 313.893 642.333 314.387 640.92 314.76C639.507 315.107 637.933 315.28 636.2 315.28V309.92C638.84 309.84 640.84 309.253 642.2 308.16C643.587 307.04 644.4 305.387 644.64 303.2H650.24V325.64H656.36V331H636.2Z" fill="black"/>
<path d="M51.1928 337.75V328.12H55.8728C57.4928 324.22 58.4528 319.465 58.7528 313.855L59.4728 299.725H77.2478V328.075L82.1978 328.12V337.75H79.3628V331H54.0278V337.75H51.1928ZM59.1128 328.165L74.0978 328.12V302.605H62.4878L61.8578 313.945C61.5878 318.955 60.6728 323.695 59.1128 328.165ZM94.3826 331.45C91.2926 331.45 88.7876 330.415 86.8676 328.345C84.9476 326.245 83.9876 323.395 83.9876 319.795C83.9876 316.315 84.9176 313.495 86.7776 311.335C88.6376 309.145 91.0976 308.05 94.1576 308.05C97.2176 308.05 99.6326 309.115 101.403 311.245C103.203 313.375 104.103 316.225 104.103 319.795C104.103 320.155 104.088 320.41 104.058 320.56H87.0026C87.0926 323.14 87.7826 325.165 89.0726 326.635C90.3926 328.075 92.1626 328.795 94.3826 328.795C96.1226 328.795 97.5626 328.36 98.7026 327.49C99.8726 326.59 100.668 325.33 101.088 323.71L103.923 324.025C103.323 326.395 102.183 328.225 100.503 329.515C98.8526 330.805 96.8126 331.45 94.3826 331.45ZM87.0926 318.13H101.088C100.908 315.73 100.188 313.9 98.9276 312.64C97.6676 311.35 96.0776 310.705 94.1576 310.705C92.2076 310.705 90.5726 311.35 89.2526 312.64C87.9626 313.93 87.2426 315.76 87.0926 318.13ZM105.503 331.09V328.255C107.483 328.255 108.878 327.505 109.688 326.005C110.498 324.505 110.948 322.435 111.038 319.795L111.488 308.5H126.518V331H123.458V311.155H114.413L114.053 319.75C113.723 327.31 110.873 331.09 105.503 331.09ZM132.003 331V308.5H135.018V327.22L147.348 308.5H151.038V331H148.023V312.235L135.693 331H132.003ZM165.439 331.45C162.349 331.45 159.859 330.385 157.969 328.255C156.109 326.125 155.179 323.305 155.179 319.795C155.179 316.255 156.094 313.42 157.924 311.29C159.784 309.13 162.259 308.05 165.349 308.05C167.929 308.05 170.044 308.8 171.694 310.3C173.374 311.77 174.439 313.87 174.889 316.6L171.919 316.87C171.529 314.86 170.764 313.345 169.624 312.325C168.514 311.275 167.089 310.75 165.349 310.75C163.129 310.75 161.374 311.56 160.084 313.18C158.824 314.8 158.194 317.005 158.194 319.795C158.194 322.525 158.839 324.7 160.129 326.32C161.449 327.94 163.219 328.75 165.439 328.75C167.119 328.75 168.544 328.225 169.714 327.175C170.884 326.125 171.679 324.595 172.099 322.585L175.069 322.81C174.589 325.54 173.494 327.67 171.784 329.2C170.104 330.7 167.989 331.45 165.439 331.45ZM179.157 331V308.5H182.217V317.77H189.057C191.547 317.77 193.467 318.355 194.817 319.525C196.197 320.665 196.887 322.285 196.887 324.385C196.887 326.485 196.197 328.12 194.817 329.29C193.467 330.43 191.547 331 189.057 331H179.157ZM182.217 328.57H188.427C192.147 328.57 194.007 327.175 194.007 324.385C194.007 321.595 192.147 320.2 188.427 320.2H182.217V328.57ZM222.963 331.45C219.873 331.45 217.383 330.385 215.493 328.255C213.633 326.125 212.703 323.305 212.703 319.795C212.703 316.255 213.618 313.42 215.448 311.29C217.308 309.13 219.783 308.05 222.873 308.05C225.453 308.05 227.568 308.8 229.218 310.3C230.898 311.77 231.963 313.87 232.413 316.6L229.443 316.87C229.053 314.86 228.288 313.345 227.148 312.325C226.038 311.275 224.613 310.75 222.873 310.75C220.653 310.75 218.898 311.56 217.608 313.18C216.348 314.8 215.718 317.005 215.718 319.795C215.718 322.525 216.363 324.7 217.653 326.32C218.973 327.94 220.743 328.75 222.963 328.75C224.643 328.75 226.068 328.225 227.238 327.175C228.408 326.125 229.203 324.595 229.623 322.585L232.593 322.81C232.113 325.54 231.018 327.67 229.308 329.2C227.628 330.7 225.513 331.45 222.963 331.45ZM236.681 331V308.5H246.851C252.101 308.5 254.726 310.54 254.726 314.62C254.726 315.94 254.396 317.05 253.736 317.95C253.076 318.85 252.176 319.45 251.036 319.75C253.676 320.41 254.996 322.12 254.996 324.88C254.996 328.96 252.341 331 247.031 331H236.681ZM239.741 318.58H246.311C248.351 318.58 249.776 318.28 250.586 317.68C251.396 317.08 251.801 316.09 251.801 314.71C251.801 313.36 251.381 312.385 250.541 311.785C249.731 311.185 248.321 310.885 246.311 310.885H239.741V318.58ZM239.741 328.615H246.446C248.486 328.615 249.926 328.315 250.766 327.715C251.606 327.085 252.026 326.095 252.026 324.745C252.026 323.395 251.606 322.42 250.766 321.82C249.926 321.22 248.486 320.92 246.446 320.92H239.741V328.615ZM275.512 328.345C273.712 330.415 271.297 331.45 268.267 331.45C265.237 331.45 262.792 330.415 260.932 328.345C259.102 326.275 258.187 323.425 258.187 319.795C258.187 316.135 259.102 313.27 260.932 311.2C262.792 309.1 265.237 308.05 268.267 308.05C271.297 308.05 273.712 309.1 275.512 311.2C277.342 313.27 278.257 316.135 278.257 319.795C278.257 323.425 277.342 326.275 275.512 328.345ZM268.267 328.795C270.367 328.795 272.047 328.015 273.307 326.455C274.567 324.865 275.197 322.645 275.197 319.795C275.197 316.915 274.567 314.68 273.307 313.09C272.047 311.5 270.367 310.705 268.267 310.705C266.137 310.705 264.427 311.5 263.137 313.09C261.877 314.68 261.247 316.915 261.247 319.795C261.247 322.645 261.877 324.865 263.137 326.455C264.427 328.015 266.137 328.795 268.267 328.795ZM282.472 331V308.5H285.487V327.22L297.817 308.5H301.507V331H298.492V312.235L286.162 331H282.472ZM306.95 331V308.5H311.045L320.405 327.85L329.675 308.5H333.77V331H330.755V312.775L321.98 331H318.83L310.01 312.73V331H306.95ZM339.205 331V308.5H342.22V327.22L354.55 308.5H358.24V331H355.225V312.235L342.895 331H339.205ZM376.515 341.8V308.5H379.575V313.72C380.325 311.92 381.405 310.555 382.815 309.625C384.225 308.695 385.8 308.23 387.54 308.23C390.12 308.23 392.28 309.19 394.02 311.11C395.79 313.03 396.675 315.925 396.675 319.795C396.675 323.695 395.79 326.59 394.02 328.48C392.28 330.34 390.12 331.27 387.54 331.27C385.8 331.27 384.225 330.82 382.815 329.92C381.405 329.02 380.325 327.67 379.575 325.87V341.8H376.515ZM386.595 328.525C388.605 328.525 390.255 327.805 391.545 326.365C392.835 324.925 393.48 322.735 393.48 319.795C393.48 316.855 392.835 314.65 391.545 313.18C390.255 311.71 388.605 310.975 386.595 310.975C384.675 310.975 383.025 311.77 381.645 313.36C380.295 314.92 379.62 317.065 379.62 319.795C379.62 322.495 380.295 324.625 381.645 326.185C383.025 327.745 384.675 328.525 386.595 328.525ZM407.483 331.45C405.143 331.45 403.283 330.895 401.903 329.785C400.553 328.675 399.878 327.22 399.878 325.42C399.878 323.62 400.388 322.18 401.408 321.1C402.428 319.99 403.718 319.285 405.278 318.985C406.838 318.685 408.563 318.505 410.453 318.445C412.343 318.355 414.158 318.4 415.898 318.58V316.15C415.898 314.5 415.418 313.195 414.458 312.235C413.498 311.245 412.133 310.75 410.363 310.75C408.533 310.75 407.033 311.245 405.863 312.235C404.693 313.225 404.003 314.65 403.793 316.51L400.778 316.33C401.048 313.69 402.068 311.65 403.838 310.21C405.638 308.77 407.813 308.05 410.363 308.05C413.033 308.05 415.133 308.785 416.663 310.255C418.193 311.725 418.958 313.78 418.958 316.42V331H416.618L416.033 327.22C414.323 330.04 411.473 331.45 407.483 331.45ZM408.068 328.885C410.468 328.885 412.373 328.21 413.783 326.86C415.193 325.51 415.898 323.785 415.898 321.685V320.695C414.428 320.605 412.928 320.59 411.398 320.65C409.898 320.71 408.518 320.845 407.258 321.055C406.028 321.235 405.008 321.685 404.198 322.405C403.418 323.095 403.028 324.01 403.028 325.15C403.028 326.29 403.448 327.205 404.288 327.895C405.158 328.555 406.418 328.885 408.068 328.885ZM433.684 331.27C429.784 331.27 426.949 329.71 425.179 326.59C423.919 324.37 423.289 321.295 423.289 317.365C423.289 311.965 424.609 307.735 427.249 304.675C428.059 303.745 429.049 302.935 430.219 302.245C431.419 301.525 432.409 301.03 433.189 300.76C433.999 300.46 435.064 300.13 436.384 299.77C437.734 299.38 438.709 298.99 439.309 298.6C439.909 298.18 440.209 297.58 440.209 296.8H443.539C443.509 298.06 443.119 299.065 442.369 299.815C441.619 300.535 440.479 301.165 438.949 301.705C438.619 301.825 438.034 302.005 437.194 302.245C436.384 302.485 435.679 302.71 435.079 302.92C434.509 303.13 433.804 303.43 432.964 303.82C432.124 304.21 431.389 304.675 430.759 305.215C430.159 305.755 429.544 306.415 428.914 307.195C428.314 307.945 427.804 308.875 427.384 309.985C426.994 311.065 426.709 312.295 426.529 313.675C428.149 310.435 430.879 308.815 434.719 308.815C437.359 308.815 439.504 309.85 441.154 311.92C442.804 313.99 443.629 316.705 443.629 320.065C443.629 323.365 442.714 326.065 440.884 328.165C439.054 330.235 436.654 331.27 433.684 331.27ZM433.684 328.57C435.724 328.57 437.374 327.79 438.634 326.23C439.924 324.67 440.569 322.615 440.569 320.065C440.569 317.515 439.924 315.46 438.634 313.9C437.374 312.31 435.724 311.515 433.684 311.515C431.584 311.515 429.874 312.31 428.554 313.9C427.234 315.46 426.574 317.515 426.574 320.065C426.574 322.585 427.174 324.64 428.374 326.23C429.604 327.79 431.374 328.57 433.684 328.57ZM464.213 328.345C462.413 330.415 459.998 331.45 456.968 331.45C453.938 331.45 451.493 330.415 449.633 328.345C447.803 326.275 446.888 323.425 446.888 319.795C446.888 316.135 447.803 313.27 449.633 311.2C451.493 309.1 453.938 308.05 456.968 308.05C459.998 308.05 462.413 309.1 464.213 311.2C466.043 313.27 466.958 316.135 466.958 319.795C466.958 323.425 466.043 326.275 464.213 328.345ZM456.968 328.795C459.068 328.795 460.748 328.015 462.008 326.455C463.268 324.865 463.898 322.645 463.898 319.795C463.898 316.915 463.268 314.68 462.008 313.09C460.748 311.5 459.068 310.705 456.968 310.705C454.838 310.705 453.128 311.5 451.838 313.09C450.578 314.68 449.948 316.915 449.948 319.795C449.948 322.645 450.578 324.865 451.838 326.455C453.128 328.015 454.838 328.795 456.968 328.795ZM477.304 331V311.155H468.799V308.5H488.824V311.155H480.364V331H477.304ZM498.01 331.45C495.67 331.45 493.81 330.895 492.43 329.785C491.08 328.675 490.405 327.22 490.405 325.42C490.405 323.62 490.915 322.18 491.935 321.1C492.955 319.99 494.245 319.285 495.805 318.985C497.365 318.685 499.09 318.505 500.98 318.445C502.87 318.355 504.685 318.4 506.425 318.58V316.15C506.425 314.5 505.945 313.195 504.985 312.235C504.025 311.245 502.66 310.75 500.89 310.75C499.06 310.75 497.56 311.245 496.39 312.235C495.22 313.225 494.53 314.65 494.32 316.51L491.305 316.33C491.575 313.69 492.595 311.65 494.365 310.21C496.165 308.77 498.34 308.05 500.89 308.05C503.56 308.05 505.66 308.785 507.19 310.255C508.72 311.725 509.485 313.78 509.485 316.42V331H507.145L506.56 327.22C504.85 330.04 502 331.45 498.01 331.45ZM498.595 328.885C500.995 328.885 502.9 328.21 504.31 326.86C505.72 325.51 506.425 323.785 506.425 321.685V320.695C504.955 320.605 503.455 320.59 501.925 320.65C500.425 320.71 499.045 320.845 497.785 321.055C496.555 321.235 495.535 321.685 494.725 322.405C493.945 323.095 493.555 324.01 493.555 325.15C493.555 326.29 493.975 327.205 494.815 327.895C495.685 328.555 496.945 328.885 498.595 328.885ZM514.855 331V308.5H518.95L528.31 327.85L537.58 308.5H541.675V331H538.66V312.775L529.885 331H526.735L517.915 312.73V331H514.855ZM547.111 331V308.5H550.126V327.22L562.456 308.5H566.146V331H563.131V312.235L550.801 331H547.111Z" fill="black"/>
<path d="M463.318 147V129.66C462.078 130.42 460.278 131.12 457.918 131.76C455.598 132.4 453.538 132.72 451.738 132.72C449.578 132.72 447.658 132.54 445.978 132.18C444.298 131.82 442.718 131.22 441.238 130.38C439.798 129.5 438.678 128.22 437.878 126.54C437.118 124.86 436.738 122.8 436.738 120.36V105.3H440.938V120.06C440.938 121.9 441.218 123.44 441.778 124.68C442.378 125.92 443.218 126.84 444.298 127.44C445.418 128 446.578 128.4 447.778 128.64C448.978 128.84 450.418 128.94 452.098 128.94C456.458 128.94 460.198 128.02 463.318 126.18V105.3H467.518V147H463.318ZM483.59 147V120.54H472.25V117H498.95V120.54H487.67V147H483.59ZM524.554 143.46C522.154 146.22 518.934 147.6 514.894 147.6C510.854 147.6 507.594 146.22 505.114 143.46C502.674 140.7 501.454 136.9 501.454 132.06C501.454 127.18 502.674 123.36 505.114 120.6C507.594 117.8 510.854 116.4 514.894 116.4C518.934 116.4 522.154 117.8 524.554 120.6C526.994 123.36 528.214 127.18 528.214 132.06C528.214 136.9 526.994 140.7 524.554 143.46ZM514.894 144.06C517.694 144.06 519.934 143.02 521.614 140.94C523.294 138.82 524.134 135.86 524.134 132.06C524.134 128.22 523.294 125.24 521.614 123.12C519.934 121 517.694 119.94 514.894 119.94C512.054 119.94 509.774 121 508.054 123.12C506.374 125.24 505.534 128.22 505.534 132.06C505.534 135.86 506.374 138.82 508.054 140.94C509.774 143.02 512.054 144.06 514.894 144.06ZM559.762 147V120.54H548.422V117H575.122V120.54H563.842V147H559.762ZM587.371 147.6C584.251 147.6 581.771 146.86 579.931 145.38C578.131 143.9 577.231 141.96 577.231 139.56C577.231 137.16 577.911 135.24 579.271 133.8C580.631 132.32 582.351 131.38 584.431 130.98C586.511 130.58 588.811 130.34 591.331 130.26C593.851 130.14 596.271 130.2 598.591 130.44V127.2C598.591 125 597.951 123.26 596.671 121.98C595.391 120.66 593.571 120 591.211 120C588.771 120 586.771 120.66 585.211 121.98C583.651 123.3 582.731 125.2 582.451 127.68L578.431 127.44C578.791 123.92 580.151 121.2 582.511 119.28C584.911 117.36 587.811 116.4 591.211 116.4C594.771 116.4 597.571 117.38 599.611 119.34C601.651 121.3 602.671 124.04 602.671 127.56V147H599.551L598.771 141.96C596.491 145.72 592.691 147.6 587.371 147.6ZM588.151 144.18C591.351 144.18 593.891 143.28 595.771 141.48C597.651 139.68 598.591 137.38 598.591 134.58V133.26C596.631 133.14 594.631 133.12 592.591 133.2C590.591 133.28 588.751 133.46 587.071 133.74C585.431 133.98 584.071 134.58 582.991 135.54C581.951 136.46 581.431 137.68 581.431 139.2C581.431 140.72 581.991 141.94 583.111 142.86C584.271 143.74 585.951 144.18 588.151 144.18ZM635.51 147H630.41L619.25 132.06L613.91 137.04V147H609.83V117H613.91V132.6L630.17 117H635.45L622.01 129.54L635.51 147ZM660.374 143.46C657.974 146.22 654.754 147.6 650.714 147.6C646.674 147.6 643.414 146.22 640.934 143.46C638.494 140.7 637.274 136.9 637.274 132.06C637.274 127.18 638.494 123.36 640.934 120.6C643.414 117.8 646.674 116.4 650.714 116.4C654.754 116.4 657.974 117.8 660.374 120.6C662.814 123.36 664.034 127.18 664.034 132.06C664.034 136.9 662.814 140.7 660.374 143.46ZM650.714 144.06C653.514 144.06 655.754 143.02 657.434 140.94C659.114 138.82 659.954 135.86 659.954 132.06C659.954 128.22 659.114 125.24 657.434 123.12C655.754 121 653.514 119.94 650.714 119.94C647.874 119.94 645.594 121 643.874 123.12C642.194 125.24 641.354 128.22 641.354 132.06C641.354 135.86 642.194 138.82 643.874 140.94C645.594 143.02 647.874 144.06 650.714 144.06ZM682.189 147.6C678.069 147.6 674.729 146.22 672.169 143.46C669.609 140.66 668.329 136.86 668.329 132.06C668.329 127.42 669.569 123.66 672.049 120.78C674.529 117.86 677.809 116.4 681.889 116.4C685.969 116.4 689.189 117.82 691.549 120.66C693.949 123.5 695.149 127.3 695.149 132.06C695.149 132.54 695.129 132.88 695.089 133.08H672.349C672.469 136.52 673.389 139.22 675.109 141.18C676.869 143.1 679.229 144.06 682.189 144.06C684.509 144.06 686.429 143.48 687.949 142.32C689.509 141.12 690.569 139.44 691.129 137.28L694.909 137.7C694.109 140.86 692.589 143.3 690.349 145.02C688.149 146.74 685.429 147.6 682.189 147.6ZM672.469 129.84H691.129C690.889 126.64 689.929 124.2 688.249 122.52C686.569 120.8 684.449 119.94 681.889 119.94C679.289 119.94 677.109 120.8 675.349 122.52C673.629 124.24 672.669 126.68 672.469 129.84ZM733.467 147V130.62L715.107 105.3H720.387L735.567 127.08L750.687 105.3H755.967L737.667 130.62V147H733.467ZM762.251 147V120.6H756.011V117H762.251V111.9C762.251 104.9 765.551 101.4 772.151 101.4C773.591 101.4 775.031 101.5 776.471 101.7V105.36C775.231 105.12 774.011 105 772.811 105C770.531 105 768.871 105.56 767.831 106.68C766.831 107.76 766.331 109.5 766.331 111.9V117H774.971V120.6H766.331V147H762.251ZM780.631 161.4V117H784.711V123.96C785.711 121.56 787.151 119.74 789.031 118.5C790.911 117.26 793.011 116.64 795.331 116.64C798.771 116.64 801.651 117.92 803.971 120.48C806.331 123.04 807.511 126.9 807.511 132.06C807.511 137.26 806.331 141.12 803.971 143.64C801.651 146.12 798.771 147.36 795.331 147.36C793.011 147.36 790.911 146.76 789.031 145.56C787.151 144.36 785.711 142.56 784.711 140.16V161.4H780.631ZM794.071 143.7C796.751 143.7 798.951 142.74 800.671 140.82C802.391 138.9 803.251 135.98 803.251 132.06C803.251 128.14 802.391 125.2 800.671 123.24C798.951 121.28 796.751 120.3 794.071 120.3C791.511 120.3 789.311 121.36 787.471 123.48C785.671 125.56 784.771 128.42 784.771 132.06C784.771 135.66 785.671 138.5 787.471 140.58C789.311 142.66 791.511 143.7 794.071 143.7ZM823.949 147.36C820.509 147.36 817.609 146.12 815.249 143.64C812.929 141.12 811.769 137.26 811.769 132.06C811.769 126.9 812.929 123.04 815.249 120.48C817.609 117.92 820.509 116.64 823.949 116.64C826.269 116.64 828.349 117.26 830.189 118.5C832.069 119.74 833.509 121.56 834.509 123.96V101.4H838.649V147H834.509V140.16C832.469 144.96 828.949 147.36 823.949 147.36ZM825.149 143.7C827.749 143.7 829.949 142.66 831.749 140.58C833.589 138.5 834.509 135.66 834.509 132.06C834.509 128.42 833.589 125.56 831.749 123.48C829.949 121.36 827.749 120.3 825.149 120.3C822.509 120.3 820.329 121.28 818.609 123.24C816.889 125.2 816.029 128.14 816.029 132.06C816.029 135.98 816.889 138.9 818.609 140.82C820.329 142.74 822.509 143.7 825.149 143.7ZM849.028 147V120.6H842.788V117H849.028V111.9C849.028 104.9 852.328 101.4 858.928 101.4C860.368 101.4 861.808 101.5 863.248 101.7V105.36C862.008 105.12 860.788 105 859.588 105C857.308 105 855.648 105.56 854.608 106.68C853.608 107.76 853.108 109.5 853.108 111.9V117H861.748V120.6H853.108V147H849.028ZM871.036 161.46C870.036 161.46 868.916 161.4 867.676 161.28V157.68C869.116 157.76 870.016 157.8 870.376 157.8C871.936 157.8 873.176 157.34 874.096 156.42C875.016 155.54 875.956 153.9 876.916 151.5L878.656 147.18L866.056 117H870.736L880.636 142.68L890.056 117H894.616L880.576 152.46C879.216 155.94 877.836 158.3 876.436 159.54C875.036 160.82 873.236 161.46 871.036 161.46ZM913.807 147.36C911.487 147.36 909.387 146.76 907.507 145.56C905.627 144.36 904.187 142.56 903.187 140.16V147H899.107V101.4H903.187V123.96C904.187 121.56 905.627 119.74 907.507 118.5C909.387 117.26 911.487 116.64 913.807 116.64C917.247 116.64 920.127 117.92 922.447 120.48C924.807 123.04 925.987 126.9 925.987 132.06C925.987 137.26 924.807 141.12 922.447 143.64C920.127 146.12 917.247 147.36 913.807 147.36ZM912.547 143.7C915.227 143.7 917.427 142.74 919.147 140.82C920.867 138.9 921.727 135.98 921.727 132.06C921.727 128.14 920.867 125.2 919.147 123.24C917.427 121.28 915.227 120.3 912.547 120.3C909.987 120.3 907.787 121.36 905.947 123.48C904.147 125.56 903.247 128.42 903.247 132.06C903.247 135.66 904.147 138.5 905.947 140.58C907.787 142.66 909.987 143.7 912.547 143.7ZM945.672 147.06C942.392 147.06 939.912 146.08 938.232 144.12C936.552 142.16 935.712 139.42 935.712 135.9V120.6H928.512V117H935.712V108.12L939.792 106.44V117H949.752V120.6H939.792V135.78C939.792 140.82 941.972 143.34 946.332 143.34C947.772 143.34 949.072 143.26 950.232 143.1V146.76C948.432 146.96 946.912 147.06 945.672 147.06ZM967.113 136.8C967.113 134.88 967.493 133.2 968.253 131.76C969.053 130.32 970.013 129.14 971.133 128.22C972.293 127.3 973.433 126.38 974.553 125.46C975.673 124.54 976.613 123.38 977.373 121.98C978.173 120.58 978.573 118.96 978.573 117.12C978.573 114.64 977.733 112.64 976.053 111.12C974.373 109.6 972.153 108.84 969.393 108.84C966.673 108.84 964.333 109.74 962.373 111.54C960.413 113.3 959.233 115.72 958.833 118.8L954.753 118.5C955.193 114.42 956.773 111.16 959.493 108.72C962.253 106.24 965.553 105 969.393 105C973.393 105 976.613 106.12 979.053 108.36C981.493 110.6 982.713 113.5 982.713 117.06C982.713 119.14 982.313 121 981.513 122.64C980.713 124.24 979.733 125.56 978.573 126.6C977.413 127.6 976.253 128.56 975.093 129.48C973.933 130.4 972.933 131.48 972.093 132.72C971.293 133.92 970.893 135.28 970.893 136.8H967.113ZM966.453 147.42V142.5H971.493V147.42H966.453Z" fill="black"/>
</svg>
