<svg width="70" height="130" viewBox="0 0 70 130" fill="none" xmlns="http://www.w3.org/2000/svg">
<circle cx="35" cy="35" r="31.5" transform="matrix(-1 0 0 1 70 28)" stroke="#56A9ED" stroke-width="7"/>
<path d="M23.32 75V69.64L33.92 63.36C36 62.1333 37.4667 61.04 38.32 60.08C39.2 59.12 39.64 58.0533 39.64 56.88C39.64 55.5733 39.24 54.5333 38.44 53.76C37.6667 52.9867 36.64 52.6 35.36 52.6C34.0533 52.6 32.92 53.0267 31.96 53.88C31 54.7333 30.4533 55.92 30.32 57.44L24.04 56.92C24.2533 54.04 25.4133 51.6667 27.52 49.8C29.6267 47.9333 32.24 47 35.36 47C38.6933 47 41.3067 47.8933 43.2 49.68C45.12 51.4667 46.08 53.8667 46.08 56.88C46.08 58.9867 45.4267 60.8133 44.12 62.36C42.8133 63.9067 40.96 65.3867 38.56 66.8L33.76 69.64H45.96V75H23.32Z" fill="black"/>
</svg>
