<svg width="70" height="130" viewBox="0 0 70 130" fill="none" xmlns="http://www.w3.org/2000/svg">
<circle cx="35" cy="60" r="31.5" stroke="#56A9ED" stroke-width="7"/>
<path d="M35.52 75.2C34.1867 75.2 32.88 75.0533 31.6 74.76C30.3467 74.4667 29.0933 74 27.84 73.36C26.6133 72.6933 25.56 71.7467 24.68 70.52C23.8267 69.2667 23.2667 67.8 23 66.12L29.6 65.52C29.8667 66.96 30.5467 68.04 31.64 68.76C32.7333 69.48 33.9733 69.84 35.36 69.84C36.9333 69.84 38.16 69.5067 39.04 68.84C39.92 68.1733 40.36 67.3733 40.36 66.44C40.36 64.4133 38.6533 63.4 35.24 63.4H33.92V57.96H35.24C36.84 57.96 37.9467 57.7333 38.56 57.28C39.1733 56.8267 39.48 56.1867 39.48 55.36C39.48 54.56 39.12 53.8667 38.4 53.28C37.68 52.6933 36.7467 52.4 35.6 52.4C34.2933 52.4 33.2133 52.7467 32.36 53.44C31.5333 54.1333 31.0133 55.1067 30.8 56.36L24.4 55.84C24.8267 53.04 26.0267 50.8667 28 49.32C29.9733 47.7733 32.52 47 35.64 47C38.7333 47 41.2133 47.7867 43.08 49.36C44.9467 50.9067 45.88 52.7867 45.88 55C45.88 56.4133 45.4933 57.6 44.72 58.56C43.9733 59.4933 43 60.1467 41.8 60.52C43.24 60.8933 44.4133 61.6133 45.32 62.68C46.2267 63.7467 46.68 65.1067 46.68 66.76C46.68 69.1067 45.6667 71.1067 43.64 72.76C41.6133 74.3867 38.9067 75.2 35.52 75.2Z" fill="black"/>
</svg>
